<svg xmlns="http://www.w3.org/2000/svg" xmlns:osb="http://www.openswatchbook.org/uri/2009/osb" xmlns:svg="http://www.w3.org/2000/svg" xmlns:xlink="http://www.w3.org/1999/xlink" id="svg2" width="86" height="86" x="0" y="0" enable-background="new 0 0 86 86" version="1.1" viewBox="0 0 86 86" xml:space="preserve"><metadata id="metadata27"/><defs id="defs25"><linearGradient id="linearGradient3798"><stop id="stop3800" offset="0" style="stop-color:#ff8f54;stop-opacity:1"/><stop id="stop3802" offset="1" style="stop-color:#ffdf00;stop-opacity:1"/></linearGradient><linearGradient id="linearGradient5614"><stop style="stop-color:#bcbca0;stop-opacity:1" id="stop5616" offset="0"/><stop style="stop-color:#bcbca0;stop-opacity:1" id="stop5618" offset="1"/></linearGradient><linearGradient id="linearGradient5389"><stop style="stop-color:#1b91ff;stop-opacity:.45299146" id="stop5391" offset="0"/><stop style="stop-color:#1b91ff;stop-opacity:1" id="stop5393" offset="1"/></linearGradient><linearGradient id="linearGradient5375" osb:paint="solid"><stop style="stop-color:#ab9145;stop-opacity:1" id="stop5377" offset="0"/></linearGradient><linearGradient id="linearGradient5395" x1="27.924" x2="73.516" y1="42.404" y2="28.921" gradientTransform="translate(4,4)" gradientUnits="userSpaceOnUse" xlink:href="#linearGradient5389"/><linearGradient id="linearGradient5620" x1="15.898" x2="75.741" y1="42.084" y2="42.084" gradientTransform="translate(1.1655804,6.8344196)" gradientUnits="userSpaceOnUse" xlink:href="#linearGradient5614"/><linearGradient id="linearGradient3796" x1="3.215" x2="41.791" y1="83.267" y2="45.369" gradientUnits="userSpaceOnUse" xlink:href="#linearGradient3798"/></defs><g id="Layer_1" style="display:inline"><linearGradient id="SVGID_1_" x1=".717" x2="85.283" y1="85.283" y2=".717" gradientUnits="userSpaceOnUse" xlink:href="#linearGradient5614"><stop style="stop-color:#000;stop-opacity:.70588237" id="stop7" offset="0"/><stop style="stop-color:#000;stop-opacity:.70588237" id="stop9" offset="1"/></linearGradient><path id="path11" d="M 84.277,0.3 43,0.3 C 19.417,0.3 0.3,19.418 0.3,43 l 0,41.277 c 0,0.786 0.63700401,1.42551 1.423,1.423 L 82.424199,85.442325 C 85.904235,85.431215 85.699999,82.557819 85.7,73.147917 L 85.7,1.723 C 85.7,0.937 85.063,0.3 84.277,0.3 z" style="fill:url(#linearGradient3796);fill-opacity:1"/></g><g id="layer2" style="display:inline"><path style="fill:#000;fill-opacity:1;stroke:#000;stroke-width:1px;stroke-linecap:butt;stroke-linejoin:miter;stroke-opacity:1" id="path3919" d="m 21.855932,31.694915 27.513995,-15.885212 27.51207,15.884101 0,29.51806 L 49.871851,76.80618 21.89422,61.074068 z"/><path style="fill:url(#linearGradient5395);fill-opacity:1;stroke:#000;stroke-width:1px;stroke-linecap:butt;stroke-linejoin:miter;stroke-opacity:1" id="path3921" d="m 32.423729,56.474576 0,-20.042373 17.178975,-9.918286 17.574569,10.146682 0,19.44957 -17.638017,10.183314 z"/></g><g id="layer3" style="display:inline"><path style="fill:url(#linearGradient5620);fill-opacity:1;fill-rule:nonzero;stroke:#000;stroke-width:.5;stroke-linecap:butt;stroke-linejoin:round;stroke-miterlimit:4;stroke-opacity:1;stroke-dasharray:none" id="path5484" d="m 17.563885,16.855606 17.127119,14.394068 5.101695,3.279661 7.652542,0 9.11017,-12.207627 0.182203,3.097458 1.09322,0.182203 0,1.09322 0.911017,0.911017 0,0.546611 1.639831,1.09322 -0.182204,0.728813 1.093221,0 0,1.639831 0,0 1.822034,0 0,1.09322 2.18644,0 -0.911017,0.911017 2.368644,0.364407 0.546611,0.911017 4.008474,0.911017 -2.004237,1.822034 1.09322,0.728813 -1.63983,0.911017 0.728813,0.911017 -0.364407,1.275424 1.457628,0.54661 -1.264585,1.103566 1.546047,0 -0.644187,0.901861 1.159536,0.515349 -0.773024,0.644187 1.159535,0.644186 0,0.386512 0.773024,0.128837 -0.128837,0.644186 1.159535,0.515349 -1.41721,0.901861 2.83442,1.030698 0,0.644186 1.41721,1.288373 -2.576746,0 0.515349,1.674884 -2.190233,-1.030698 -0.901861,0.644186 0.128838,0.773024 -1.030698,0 0,0.773023 -1.030698,0.257675 -0.644187,1.546047 0.128838,1.674884 -2.061396,-1.159535 -3.478606,1.030698 0.128837,3.607443 -0.386512,4.638141 -2.061396,2.705582 -2.963257,2.447908 -4.895815,0.901861 -4.25163,1.288372 -6.441862,3.865118 -9.147445,3.993955 8.632096,-4.895816 5.15349,-3.349768 0.515349,-2.190234 -3.349769,-3.220931 -4.766978,-2.319071 3.865118,1.159536 3.478605,2.31907 2.447908,1.41721 2.963257,-1.803722 1.41721,-2.834419 0,-2.705582 -2.963257,-3.478606 -7.086049,-6.957212 -1.030698,-0.515349 -3.478606,3.092094 -1.546047,2.963257 0.386512,-2.705582 3.349769,-5.282328 -5.66884,-6.828374 -2.576745,-3.349769 -3.092094,-1.932558 -3.993954,-1.030698 3.607443,-0.386512 5.540001,0.901861 0.386512,-1.159536 -1.546047,-3.993954 -4.251629,-4.122793 z"/><path style="fill:none;stroke:#000;stroke-width:.5;stroke-linecap:butt;stroke-linejoin:round;stroke-miterlimit:4;stroke-opacity:1;stroke-dasharray:none" id="path5518" d="m 47.933503,34.728819 6.5707,5.411165 4.251629,4.895815 3.607443,7.859073 1.030698,5.15349 0,0 0,0 0,0"/><path style="fill:none;stroke:#000;stroke-width:.5;stroke-linecap:butt;stroke-linejoin:round;stroke-miterlimit:4;stroke-opacity:1;stroke-dasharray:none" id="path5520" d="m 40.460942,34.857656 3.092094,2.061396 4.251629,0.644187 4.638142,4.122792 3.865117,3.865117 3.092094,5.926514 2.705582,4.766978 1.030699,2.061396"/><path style="fill:none;stroke:#000;stroke-width:.5;stroke-linecap:butt;stroke-linejoin:round;stroke-miterlimit:4;stroke-opacity:1;stroke-dasharray:none" id="path5522" d="m 51.283271,37.434401 0,3.220932 0.386512,0.257674"/><path style="fill:none;stroke:#000;stroke-width:.5;stroke-linecap:butt;stroke-linejoin:round;stroke-miterlimit:4;stroke-opacity:1;stroke-dasharray:none" id="path5526" d="M 53.988854,40.011146 53.731179,43.10324"/><path style="fill:none;stroke:#000;stroke-width:.5;stroke-linecap:butt;stroke-linejoin:round;stroke-miterlimit:4;stroke-opacity:1;stroke-dasharray:none" id="path5528" d="m 56.823273,43.10324 -0.644186,2.061397"/><path style="fill:none;stroke:#000;stroke-width:.5;stroke-linecap:butt;stroke-linejoin:round;stroke-miterlimit:4;stroke-opacity:1;stroke-dasharray:none" id="path5530" d="m 58.498157,45.293474 -0.515349,3.092094"/><path style="fill:none;stroke:#000;stroke-width:.5;stroke-linecap:butt;stroke-linejoin:round;stroke-miterlimit:4;stroke-opacity:1;stroke-dasharray:none" id="path5532" d="m 60.430716,49.158591 -0.773023,2.061396"/><path style="fill:none;stroke:#000;stroke-width:.5;stroke-linecap:butt;stroke-linejoin:round;stroke-miterlimit:4;stroke-opacity:1;stroke-dasharray:none" id="path5534" d="m 62.1056,52.766034 -0.515349,2.190234"/><path style="fill:none;stroke:#000;stroke-width:.5;stroke-linecap:butt;stroke-linejoin:round;stroke-miterlimit:4;stroke-opacity:1;stroke-dasharray:none" id="path5536" d="m 47.289316,46.839521 8.632096,13.399074 0,0 0,0 0,0 0,0 0,0"/><path style="fill:none;stroke:#000;stroke-width:.5;stroke-linecap:butt;stroke-linejoin:round;stroke-miterlimit:4;stroke-opacity:1;stroke-dasharray:none" id="path5538" d="m 48.835363,39.238123 -0.644186,3.865117 -2.190233,1.932559 -2.447908,0.386512 -1.41721,-1.030698 -1.546047,-2.190233 -1.159535,-1.41721"/><path style="fill:none;stroke:#000;stroke-width:.5;stroke-linecap:butt;stroke-linejoin:round;stroke-miterlimit:4;stroke-opacity:1;stroke-dasharray:none" id="path5540" d="m 42.651175,45.164637 -0.773023,1.932558 -2.190233,1.030698"/><path style="fill:none;stroke:#000;stroke-width:.5;stroke-linecap:butt;stroke-linejoin:round;stroke-miterlimit:4;stroke-opacity:1;stroke-dasharray:none" id="path5542" d="M 39.301407,40.655333 33.890242,39.624635"/><path style="fill:none;stroke:#000;stroke-width:.5;stroke-linecap:butt;stroke-linejoin:round;stroke-miterlimit:4;stroke-opacity:1;stroke-dasharray:none" id="path5544" d="M 35.307452,37.434401 39.17257,38.593937 36.466987,33.955796 33.761405,31.8944"/><path style="fill:none;stroke:#000;stroke-width:.5;stroke-linecap:butt;stroke-linejoin:round;stroke-miterlimit:4;stroke-opacity:1;stroke-dasharray:none" id="path5546" d="m 44.583734,38.465099 -0.128837,1.932559 -1.288373,1.030698"/><path style="fill:none;stroke:#000;stroke-width:.5;stroke-linecap:butt;stroke-linejoin:round;stroke-miterlimit:4;stroke-opacity:1;stroke-dasharray:none" id="path5548" d="m 39.559081,35.888354 0.386512,0.257675"/><path style="fill:none;stroke:#000;stroke-width:.5;stroke-linecap:butt;stroke-linejoin:round;stroke-miterlimit:4;stroke-opacity:1;stroke-dasharray:none" id="path5550" d="m 41.105128,49.545103 2.319071,2.705582"/></g><g id="layer4"><path style="fill:#000;fill-opacity:1;stroke:#000;stroke-width:1px;stroke-linecap:butt;stroke-linejoin:miter;stroke-opacity:1" id="path5623" d="m 49.550847,66.131356 18.038137,-10.20339 1.822034,-1.09322 2.915253,2.733051 4.555085,3.279661 -26.903088,16.422888 -27.814254,-16.374153 10.441918,-4.60382 z"/></g></svg>